<svg width="23" height="23" viewBox="0 0 23 23" fill="none" xmlns="http://www.w3.org/2000/svg">
<path d="M22.4325 6.612C22.3778 5.41425 22.188 4.59675 21.9098 3.88125C21.6225 3.14175 21.2378 2.514 20.6123 1.8885C19.9868 1.263 19.3598 0.87825 18.6195 0.591C17.904 0.31275 17.0858 0.123 15.8888 0.0682497C14.6888 0.0127497 14.3055 0 11.25 0C8.1945 0 7.81125 0.0127501 6.612 0.0675001C5.41425 0.12225 4.59675 0.312001 3.88125 0.59025C3.14175 0.8775 2.514 1.26225 1.8885 1.88775C1.263 2.51325 0.87825 3.14025 0.591 3.8805C0.31275 4.596 0.123 5.41425 0.0682497 6.61125C0.0127497 7.81125 0 8.1945 0 11.25C0 14.3055 0.0127501 14.6887 0.0675001 15.888C0.12225 17.0857 0.312001 17.9032 0.59025 18.6188C0.8775 19.3582 1.26225 19.986 1.88775 20.6115C2.51325 21.237 3.14025 21.6218 3.8805 21.909C4.596 22.1873 5.41425 22.377 6.61125 22.4318C7.81125 22.4872 8.1945 22.5 11.25 22.5C14.3055 22.5 14.6887 22.4872 15.888 22.4325C17.0857 22.3778 17.9032 22.188 18.6188 21.9098C19.3582 21.6225 19.986 21.2378 20.6115 20.6123C21.237 19.9868 21.6218 19.3598 21.909 18.6195C22.1873 17.904 22.377 17.0858 22.4318 15.8888C22.4872 14.6888 22.5 14.3055 22.5 11.25C22.5 8.1945 22.4872 7.81125 22.4325 6.612ZM20.4075 15.7958C20.3573 16.8923 20.1742 17.4885 20.0205 17.8845C19.8165 18.4095 19.5727 18.7845 19.179 19.1782C18.7852 19.572 18.4102 19.8158 17.8853 20.0198C17.4885 20.1735 16.893 20.3573 15.7965 20.4067C14.6108 20.4608 14.2545 20.472 11.2507 20.472C8.247 20.472 7.89075 20.4608 6.705 20.4067C5.6085 20.3565 5.01225 20.1735 4.61625 20.0198C4.09125 19.8158 3.71625 19.572 3.3225 19.1782C2.92875 18.7845 2.685 18.4095 2.481 17.8845C2.32725 17.4878 2.1435 16.8923 2.094 15.7958C2.04 14.6093 2.02875 14.2537 2.02875 11.25C2.02875 8.24625 2.04 7.89 2.094 6.70425C2.14425 5.60775 2.32725 5.0115 2.481 4.6155C2.685 4.0905 2.92875 3.7155 3.3225 3.32175C3.71625 2.928 4.09125 2.68425 4.61625 2.48025C5.013 2.3265 5.6085 2.14275 6.705 2.09325C7.8915 2.03925 8.247 2.028 11.2507 2.028C14.2545 2.028 14.6108 2.03925 15.7965 2.09325C16.893 2.1435 17.4893 2.3265 17.8853 2.48025C18.4102 2.68425 18.7852 2.928 19.179 3.32175C19.5727 3.7155 19.8165 4.0905 20.0205 4.6155C20.1742 5.01225 20.358 5.60775 20.4075 6.70425C20.4615 7.89075 20.4728 8.24625 20.4728 11.25C20.4728 14.2537 20.4615 14.61 20.4075 15.7958ZM11.25 5.47275C8.0595 5.47275 5.47275 8.0595 5.47275 11.25C5.47275 14.4405 8.0595 17.0272 11.25 17.0272C14.4405 17.0272 17.0272 14.4405 17.0272 11.25C17.0272 8.0595 14.4405 5.47275 11.25 5.47275ZM11.25 15C9.17925 15 7.5 13.3208 7.5 11.25C7.5 9.17925 9.17925 7.5 11.25 7.5C13.3208 7.5 15 9.17925 15 11.25C15 13.3208 13.3208 15 11.25 15ZM17.2552 3.89475C16.5098 3.89475 15.9053 4.49925 15.9053 5.24475C15.9053 5.99025 16.5098 6.59475 17.2552 6.59475C18.0007 6.59475 18.6052 5.99025 18.6052 5.24475C18.6052 4.49925 18.0007 3.89475 17.2552 3.89475Z" fill="#F7E7C6"/>
</svg>
