<svg width="21" height="26" viewBox="0 0 21 26" fill="none" xmlns="http://www.w3.org/2000/svg">
<path d="M15.4563 0.149658C15.644 0.149746 15.7765 0.215685 15.8967 0.333252C15.9536 0.388866 16.0025 0.451198 16.0364 0.525635C16.0704 0.600627 16.0852 0.680773 16.0852 0.768799C16.0852 1.19076 16.2236 1.64968 16.469 2.02271L16.5803 2.177L16.5823 2.17896C17.2607 3.06335 18.4348 3.41824 19.5696 2.92993L19.5823 2.92407C19.7581 2.86686 19.9514 2.86446 20.1418 2.98853C20.3118 3.0993 20.4504 3.2812 20.4504 3.4895V8.46118C20.4504 8.76417 20.2585 9.01597 19.9456 9.07739L19.9407 9.07837C18.8327 9.25896 17.7709 9.18141 16.7571 8.9729V17.842C16.7571 17.8646 16.7576 17.9119 16.7493 17.9612C16.7436 17.9942 16.7307 18.0405 16.7034 18.0852C16.3396 22.2264 12.7337 25.4504 8.45337 25.4504C3.86541 25.4504 0.149714 21.8213 0.149658 17.3264C0.149658 12.9277 3.622 9.39329 8.11157 9.20239H8.21411C8.39091 9.20248 8.55031 9.2609 8.66626 9.37427C8.78258 9.48803 8.843 9.64575 8.84302 9.82153V15.2629C8.84279 15.5865 8.58165 15.8222 8.29028 15.8792L8.27759 15.8811C7.48469 15.9674 6.92505 16.5646 6.92505 17.3264C6.92511 18.1315 7.62188 18.8175 8.45337 18.8176C9.23837 18.8176 9.84468 18.268 9.93384 17.5012V0.768799C9.93391 0.593098 9.99529 0.435248 10.1116 0.321533C10.2276 0.208266 10.3869 0.149683 10.5637 0.149658H15.4563ZM11.1936 17.5608C11.1936 17.5834 11.1942 17.6306 11.1858 17.6799C11.1798 17.715 11.1663 17.7655 11.135 17.8127C10.9132 19.0874 9.75719 20.0559 8.40552 20.0559C6.88705 20.0559 5.61749 18.8195 5.61743 17.3264C5.61743 16.1637 6.43204 15.155 7.53638 14.7795V10.5042C4.00068 10.8982 1.36157 13.8013 1.36157 17.3264C1.36163 21.1334 4.50443 24.2121 8.40552 24.2122C12.0701 24.2122 15.1681 21.3625 15.4026 17.7854L15.4055 17.7278L15.4465 17.6877C15.4474 17.6869 15.448 17.6863 15.4485 17.6858C15.4487 17.6846 15.4493 17.6825 15.4495 17.6799V8.17993C15.4495 8.00329 15.5128 7.80764 15.7102 7.67896L15.7268 7.66821L15.7454 7.66235C15.8793 7.61869 16.0716 7.55086 16.2698 7.61548C17.2137 7.92318 18.1586 8.01797 19.1907 7.94458V4.32837C17.7988 4.58173 16.3906 4.00028 15.5764 2.9231L15.5735 2.92017C15.2498 2.46797 15.0117 1.96951 14.8997 1.38794H11.1936V17.5608Z" fill="#F7E7C6" stroke="#F7E7C6" stroke-width="0.3"/>
</svg>
